<svg width="24" height="24" viewBox="0 0 24 24" fill="none" xmlns="http://www.w3.org/2000/svg">
<g clip-path="url(#clip0_2189_354)">
<path fill-rule="evenodd" clip-rule="evenodd" d="M14.0643 8.54928C14.7985 8.1832 15.7326 7.64432 16.6679 6.906C16.8651 7.31552 16.8867 7.67288 16.7851 7.96144C16.7131 8.1648 16.5774 8.34168 16.399 8.4824C16.2058 8.63448 15.9646 8.7452 15.6978 8.80504C15.1918 8.91904 14.6009 8.85248 14.0643 8.54928ZM14.1916 12.3002L15.1634 12.8615C13.1791 13.9737 12.6397 16.0388 11.9989 18.0502C11.3582 16.0388 10.8186 13.9737 8.8344 12.8615L9.80624 12.3002C9.90026 12.2646 9.98061 12.2003 10.0358 12.1163C10.091 12.0323 10.1182 11.933 10.1134 11.8326C10.0244 9.9488 10.533 9.11576 11.2191 8.59272C11.4652 8.40536 11.7338 8.31128 11.9989 8.31128C12.2639 8.31128 12.5326 8.40536 12.7787 8.59272C13.4648 9.11576 13.9734 9.9488 13.8844 11.8326C13.8797 11.933 13.9069 12.0323 13.9621 12.1163C14.0172 12.2003 14.0976 12.2646 14.1916 12.3002ZM11.9989 0C13.1222 0.03016 14.2484 0.24824 15.2258 0.67248C15.9026 0.96664 16.5341 1.3552 17.1059 1.81984C17.3642 2.0296 17.5768 2.23224 17.811 2.46552C18.4428 2.48736 19.3661 1.78552 19.7947 1.1288C19.057 3.5472 15.6908 6.40312 13.3603 7.49592C13.3594 7.49552 13.3587 7.49496 13.358 7.49448C12.9398 7.17512 12.4694 7.01544 11.9989 7.01544C11.5284 7.01544 11.0581 7.17512 10.6398 7.49448C10.6391 7.49488 10.6385 7.4956 10.6375 7.49592C8.30696 6.40312 4.9408 3.5472 4.20312 1.1288C4.63168 1.78552 5.55497 2.48736 6.18673 2.46552C6.42105 2.23232 6.63369 2.0296 6.89184 1.81984C7.46369 1.3552 8.0952 0.96664 8.77201 0.67248C9.74944 0.24824 10.8756 0.03016 11.9989 0ZM9.93344 8.54928C9.19936 8.1832 8.26512 7.64432 7.32992 6.906C7.13272 7.31552 7.11112 7.67288 7.21264 7.96144C7.28472 8.1648 7.4204 8.34168 7.59872 8.4824C7.792 8.63448 8.03328 8.7452 8.3 8.80504C8.80608 8.91904 9.39688 8.85248 9.93344 8.54928Z" fill="#AEAFB0"/>
<path fill-rule="evenodd" clip-rule="evenodd" d="M17.6933 6.0012C18.2082 5.4816 18.6618 4.90648 19.0266 4.39328L19.2119 4.742C19.8084 5.93536 20.1183 7.12392 20.1183 8.46152L20.117 10.5841L20.1282 11.6844C20.1714 14.3857 20.7559 17.1187 22.0799 19.6198L19.3098 17.3861L17.3497 20.5668L15.2905 18.6283L11.9999 23.9682L8.70936 18.6284L6.65024 20.5669L4.69016 17.3862L1.91992 19.6199C3.24392 17.1188 3.8284 14.3858 3.87168 11.6845L3.88288 10.5842L3.8816 8.4616C3.8816 7.12392 4.19144 5.93536 4.78808 4.74208L4.97328 4.39336C5.33808 4.90656 5.79168 5.4816 6.30664 6.00128L6.14584 6.33528C5.83344 6.984 5.73 7.70936 5.97336 8.3992C6.13024 8.84352 6.41656 9.22456 6.78568 9.51544C7.14408 9.79792 7.56824 9.98832 8.01232 10.0883C8.3016 10.1534 8.59632 10.1802 8.88912 10.1711C8.8208 10.5584 8.79096 10.9601 8.78904 11.3694L6.17592 12.8786L8.1924 14.009C8.35357 14.0993 8.507 14.2028 8.65112 14.3185C10.3136 15.8111 11.3131 20.2269 12 22.3838C12.687 20.2269 13.6864 15.8111 15.349 14.3185C15.4931 14.2028 15.6465 14.0993 15.8077 14.009L17.8242 12.8786L15.211 11.3694C15.209 10.9601 15.1792 10.5584 15.1109 10.1711C15.4037 10.1802 15.6984 10.1534 15.9877 10.0883C16.4318 9.98832 16.856 9.79792 17.2143 9.51544C17.5834 9.22456 17.8698 8.84352 18.0266 8.3992C18.27 7.70936 18.1665 6.98408 17.8542 6.33528L17.6934 6.00128L17.6933 6.0012Z" fill="#AEAFB0"/>
</g>
<defs>
<clipPath id="clip0_2189_354">
<rect width="20.16" height="24" fill="white" transform="translate(1.91992)"/>
</clipPath>
</defs>
</svg>
