<svg width="24" height="24" viewBox="0 0 24 24" fill="none" xmlns="http://www.w3.org/2000/svg">
<path d="M10.0594 12.5859C11.2313 13.2609 11.8125 13.5984 12.4547 13.5984C13.0969 13.5984 13.6828 13.2609 14.8547 12.5859L22.3031 8.29688C22.6406 8.10469 22.8469 7.74376 22.8469 7.35469C22.8469 6.96563 22.6406 6.60938 22.3031 6.41251L14.85 2.12344C13.6781 1.44844 13.0969 1.11563 12.4547 1.11563C11.8125 1.11563 11.2266 1.45313 10.0594 2.12813L3.65625 5.82188C3.60469 5.85001 3.57656 5.86876 3.55313 5.88282C1.36875 7.16251 0.01875 9.50157 0 12.0328C0 12.0609 0 12.0891 0 12.15C0 12.2109 0 12.2391 0 12.2672C0.01875 14.7984 1.36875 17.1328 3.54844 18.4172C3.57188 18.4313 3.6 18.4453 3.65156 18.4781L7.65469 20.7938C9.99844 22.1484 11.1703 22.8234 12.4547 22.8281C13.7391 22.8328 14.9156 22.1531 17.2594 20.7984L21.4922 18.3563C22.6641 17.6813 23.25 17.3438 23.5688 16.7859C23.8875 16.2281 23.8922 15.5531 23.8922 14.1984V12.1688V11.5781C23.8922 11.2031 23.6906 10.8563 23.3625 10.6734C23.0438 10.4953 22.6594 10.5 22.3406 10.6781L13.65 15.6797C13.0641 16.0172 12.7734 16.1859 12.4547 16.1859C12.1359 16.1859 11.8406 16.0172 11.2594 15.6844L5.38125 12.3047C5.08594 12.1359 4.93594 12.0516 4.81875 12.0328C4.54688 12 4.28906 12.15 4.18594 12.4031C4.13906 12.5156 4.14375 12.6844 4.14375 13.0266C4.14375 13.275 4.14375 13.4016 4.16719 13.5188C4.21875 13.7766 4.35469 14.0109 4.55156 14.1844C4.64063 14.2641 4.74844 14.325 4.96406 14.4516L11.25 18.0844C11.8359 18.4219 12.1266 18.5906 12.45 18.5906C12.7734 18.5906 13.0641 18.4219 13.65 18.0844L21.3563 13.6359C21.5578 13.5188 21.6563 13.4625 21.7313 13.5047C21.8063 13.5469 21.8063 13.6641 21.8063 13.8938V15.0797C21.8063 15.4172 21.8063 15.5859 21.7266 15.7266C21.6469 15.8672 21.5016 15.9516 21.2063 16.1203L14.8547 19.7813C13.6828 20.4563 13.0969 20.7938 12.4547 20.7938C11.8125 20.7938 11.2266 20.4563 10.0547 19.7766L4.11094 16.3453C4.0875 16.3313 4.07813 16.3266 4.06875 16.3219C2.82188 15.5906 2.05781 14.2594 2.04844 12.8203C2.04844 12.8109 2.04844 12.7969 2.04844 12.7734V11.6766C2.04844 10.8797 2.475 10.1438 3.16406 9.74063C3.77344 9.38438 4.52813 9.38438 5.1375 9.74063L10.0594 12.5859Z" fill="#AEAFB0"/>
</svg>
