<svg width="24" height="24" viewBox="0 0 24 24" fill="none" xmlns="http://www.w3.org/2000/svg">
<path fill-rule="evenodd" clip-rule="evenodd" d="M1.65806 10.5664C8.09146 7.74537 12.3919 5.922 14.5593 5.02751C20.683 2.48168 21.956 2.03443 22.7816 2.00003C22.9537 2.00003 23.3665 2.03443 23.6417 2.24085C23.8481 2.41287 23.9169 2.65369 23.9513 2.82571C23.9858 2.99772 24.0202 3.37616 23.9858 3.68579C23.6417 7.16051 22.2312 15.6581 21.4743 19.5457C21.1647 21.197 20.5454 21.7475 19.9606 21.8163C18.6877 21.9195 17.69 20.9562 16.4514 20.1649C14.5249 18.892 13.424 18.1007 11.5318 16.8622C9.36438 15.4173 10.7749 14.626 12.0134 13.3531C12.3231 13.0091 17.9996 7.88298 18.1028 7.40134C18.1028 7.33253 18.1372 7.12611 17.9996 7.0229C17.862 6.91969 17.69 6.95409 17.5523 6.9885C17.3459 7.0229 14.2496 9.08709 8.22908 13.1467C7.33459 13.7659 6.54332 14.0412 5.82085 14.0412C5.02958 14.0412 3.51584 13.5939 2.38053 13.2155C1.0044 12.7682 -0.0964997 12.5274 0.0067099 11.7705C0.0755163 11.3921 0.625967 10.9793 1.65806 10.5664Z" fill="#AEAFB0"/>
</svg>
