<svg width="18" height="17" viewBox="0 0 18 17" fill="none" xmlns="http://www.w3.org/2000/svg">
<path d="M9 0.625C8.30908 0.625 7.75 1.18408 7.75 1.875C7.75 2.33643 8.00146 2.73193 8.375 2.94922V4.375H5.25C3.53125 4.375 2.125 5.78125 2.125 7.5V8.75H0.25V13.75H2.125V16.875H15.875V13.75H17.75V8.75H15.875V7.5C15.875 5.78125 14.4688 4.375 12.75 4.375H9.625V2.94922C9.99854 2.73193 10.25 2.33643 10.25 1.875C10.25 1.18408 9.69092 0.625 9 0.625ZM5.25 5.625H12.75C13.7925 5.625 14.625 6.45752 14.625 7.5V15.625H13.375V12.5H4.625V15.625H3.375V7.5C3.375 6.45752 4.20752 5.625 5.25 5.625ZM6.5 8.125C5.80908 8.125 5.25 8.68408 5.25 9.375C5.25 10.0659 5.80908 10.625 6.5 10.625C7.19092 10.625 7.75 10.0659 7.75 9.375C7.75 8.68408 7.19092 8.125 6.5 8.125ZM11.5 8.125C10.8091 8.125 10.25 8.68408 10.25 9.375C10.25 10.0659 10.8091 10.625 11.5 10.625C12.1909 10.625 12.75 10.0659 12.75 9.375C12.75 8.68408 12.1909 8.125 11.5 8.125ZM1.5 10H2.125V12.5H1.5V10ZM15.875 10H16.5V12.5H15.875V10ZM5.875 13.75H7.125V15.625H5.875V13.75ZM8.375 13.75H9.625V15.625H8.375V13.75ZM10.875 13.75H12.125V15.625H10.875V13.75Z" fill="url(#paint0_linear_2374_3333)"/>
<defs>
<linearGradient id="paint0_linear_2374_3333" x1="0.25" y1="0.436047" x2="19.6769" y2="3.52173" gradientUnits="userSpaceOnUse">
<stop stop-color="#D5F903"/>
<stop offset="1" stop-color="#03EDF9"/>
</linearGradient>
</defs>
</svg>
