<svg width="204" height="28" viewBox="0 0 204 28" fill="none" xmlns="http://www.w3.org/2000/svg">
<g clip-path="url(#clip0_2133_431)">
<path fill-rule="evenodd" clip-rule="evenodd" d="M-0.00292969 13.9989V25.9979H9.36695V20.1698L11.1518 20.1612L12.9366 20.1527V25.9957H22.3065V20.1677H25.7283C28.6317 20.1677 29.208 20.1612 29.5359 20.1227C33.6776 19.647 37.018 16.3087 37.4937 12.1627C38.0637 7.20668 34.6654 2.82493 29.6644 2.06214C29.3066 2.00857 17.6162 2.02143 17.6162 2.02143C17.6162 2.02143 18.0362 2.02143 18.5097 2.09856C22.2015 2.59352 25.2655 5.43041 26.0926 9.11794L26.1097 9.19721H32.512L32.5013 10.29C32.4949 10.8406 32.5013 11.0506 32.452 11.4642C32.4435 11.5434 32.4349 11.5756 32.4027 11.6956C32.2506 12.2762 31.595 12.7969 30.9822 12.9126C30.8965 12.9276 29.868 12.9405 28.4774 12.9383H26.1183L26.0797 13.1012C26.0583 13.1911 26.039 13.279 26.0347 13.294C26.0176 13.3776 25.9276 13.7011 25.9083 13.7504C25.8955 13.7825 25.8762 13.8468 25.8655 13.8939C25.8548 13.9411 25.829 14.0182 25.8098 14.0654C25.7883 14.1125 25.7498 14.2153 25.7219 14.2946C25.6705 14.4382 25.6041 14.5989 25.5076 14.8089C25.4776 14.871 25.4348 14.9717 25.4112 15.0296C25.287 15.3402 24.6913 16.2873 24.3827 16.6644C24.3185 16.7437 24.2413 16.838 24.2092 16.8765C23.4593 17.7914 22.3986 18.6357 21.3145 19.1799C20.4338 19.6213 19.4589 19.9298 18.5676 20.0498C18.4347 20.067 18.2419 20.0927 18.139 20.1077C17.959 20.1312 13.9694 20.127 13.3994 20.127C13.3909 20.127 13.9351 20.0648 14.2415 20.0048C16.9884 19.4756 19.3968 17.6072 20.6609 15.0231C20.8195 14.6996 21.083 14.0589 21.083 13.9968C21.083 13.9796 21.0959 13.9432 21.1109 13.9154C21.1559 13.8361 21.368 13.0476 21.368 12.964C21.368 12.964 18.2333 12.9383 13.1402 12.9383C5.32374 12.9383 4.90806 12.889 4.90806 12.889C4.90806 11.7963 5.47372 10.9456 5.62157 10.7464C6.23008 9.93429 7.03358 9.44576 8.08135 9.25292C8.37275 9.19936 8.57845 9.19721 14.8736 9.20364C19.1868 9.20793 21.3637 9.18007 21.3637 9.18007C21.3616 9.11579 21.2352 8.64226 21.1345 8.32301C20.1596 5.20971 17.3205 2.68994 14.1665 2.14356C14.0637 2.12642 13.4509 2.045 13.3952 2.03428C13.3394 2.02357 10.3033 2.01286 6.64576 2.00857L-0.00292969 2V13.9989Z" fill="#F7F7F7"/>
</g>
<path d="M202.702 14.0634H198.31C198.287 13.7925 198.192 13.5591 198.025 13.3631C197.857 13.1672 197.641 13.0173 197.376 12.9136C197.117 12.8041 196.829 12.7493 196.512 12.7493C196.102 12.7493 195.751 12.8242 195.457 12.9741C195.163 13.1239 195.019 13.3372 195.025 13.6139C195.019 13.8098 195.102 13.9914 195.275 14.1585C195.454 14.3257 195.797 14.4554 196.304 14.5476L199.002 15.0317C200.362 15.2796 201.373 15.6974 202.036 16.2853C202.705 16.8675 203.042 17.6484 203.048 18.6283C203.042 19.5735 202.759 20.3948 202.2 21.0922C201.647 21.7839 200.889 22.3199 199.927 22.7003C198.97 23.075 197.878 23.2623 196.65 23.2623C194.621 23.2623 193.033 22.8473 191.886 22.0173C190.745 21.1873 190.108 20.0922 189.976 18.732H194.713C194.777 19.1528 194.984 19.4784 195.336 19.709C195.693 19.9337 196.143 20.0461 196.685 20.0461C197.123 20.0461 197.483 19.9712 197.765 19.8214C198.053 19.6715 198.2 19.4582 198.206 19.1816C198.2 18.928 198.074 18.7263 197.826 18.5764C197.584 18.4265 197.203 18.3055 196.685 18.2133L194.333 17.7983C192.978 17.562 191.964 17.1124 191.29 16.4496C190.615 15.7868 190.281 14.9337 190.287 13.8905C190.281 12.9683 190.523 12.1873 191.013 11.5476C191.509 10.902 192.215 10.4121 193.131 10.0778C194.053 9.73778 195.146 9.56775 196.408 9.56775C198.327 9.56775 199.84 9.96544 200.947 10.7608C202.059 11.5562 202.644 12.6571 202.702 14.0634Z" fill="#F7F7F7"/>
<path d="M184.338 17.2105V9.74072H189.11V23.0203H184.58V20.4958H184.441C184.153 21.343 183.649 22.0059 182.928 22.4842C182.208 22.9569 181.352 23.1932 180.361 23.1932C179.433 23.1932 178.62 22.9799 177.923 22.5534C177.231 22.1269 176.692 21.539 176.306 20.7897C175.925 20.0404 175.732 19.1816 175.727 18.2133V9.74072H180.499V17.2105C180.505 17.8675 180.672 18.3834 181 18.758C181.335 19.1327 181.801 19.32 182.401 19.32C182.799 19.32 183.142 19.2364 183.43 19.0693C183.724 18.8963 183.948 18.6543 184.104 18.343C184.265 18.026 184.343 17.6485 184.338 17.2105Z" fill="#F7F7F7"/>
<path d="M174.753 9.74064V13.1989H166.004V9.74064H174.753ZM167.698 6.55908H172.471V18.7493C172.471 18.9337 172.502 19.0893 172.566 19.2161C172.629 19.3372 172.727 19.4294 172.86 19.4928C172.992 19.5504 173.162 19.5793 173.37 19.5793C173.514 19.5793 173.681 19.562 173.871 19.5274C174.067 19.4928 174.211 19.464 174.304 19.4409L174.995 22.7954C174.782 22.8588 174.477 22.9366 174.079 23.0288C173.687 23.121 173.22 23.1816 172.678 23.2104C171.583 23.268 170.664 23.1556 169.92 22.8732C169.177 22.585 168.618 22.1326 168.243 21.5159C167.868 20.8991 167.687 20.1268 167.698 19.1988V6.55908Z" fill="#F7F7F7"/>
<path d="M160.608 17.2105V9.74072H165.38V23.0203H160.85V20.4958H160.712C160.424 21.343 159.919 22.0059 159.199 22.4842C158.478 22.9569 157.622 23.1932 156.631 23.1932C155.703 23.1932 154.89 22.9799 154.193 22.5534C153.501 22.1269 152.962 21.539 152.576 20.7897C152.196 20.0404 152.003 19.1816 151.997 18.2133V9.74072H156.769V17.2105C156.775 17.8675 156.942 18.3834 157.271 18.758C157.605 19.1327 158.072 19.32 158.671 19.32C159.069 19.32 159.412 19.2364 159.7 19.0693C159.994 18.8963 160.219 18.6543 160.375 18.343C160.536 18.026 160.614 17.6485 160.608 17.2105Z" fill="#F7F7F7"/>
<path d="M150.54 5.31409V23.0201H145.768V5.31409H150.54Z" fill="#F7F7F7"/>
<path d="M130.695 23.0201V5.31409H138.338C139.652 5.31409 140.802 5.57345 141.788 6.09219C142.773 6.61092 143.54 7.34002 144.087 8.27951C144.635 9.21899 144.909 10.317 144.909 11.5735C144.909 12.8415 144.626 13.9394 144.061 14.8674C143.502 15.7954 142.715 16.5101 141.701 17.0115C140.692 17.5129 139.514 17.7637 138.165 17.7637H133.6V14.0288H137.197C137.762 14.0288 138.243 13.9308 138.641 13.7348C139.044 13.5331 139.352 13.2478 139.566 12.8789C139.785 12.5101 139.894 12.0749 139.894 11.5735C139.894 11.0662 139.785 10.634 139.566 10.2766C139.352 9.91351 139.044 9.63685 138.641 9.44665C138.243 9.25069 137.762 9.1527 137.197 9.1527H135.502V23.0201H130.695Z" fill="#F7F7F7"/>
<path d="M125.914 9.74064V13.1989H117.165V9.74064H125.914ZM118.86 6.55908H123.632V18.7493C123.632 18.9337 123.664 19.0893 123.727 19.2161C123.79 19.3372 123.888 19.4294 124.021 19.4928C124.154 19.5504 124.324 19.5793 124.531 19.5793C124.675 19.5793 124.842 19.562 125.032 19.5274C125.228 19.4928 125.373 19.464 125.465 19.4409L126.156 22.7954C125.943 22.8588 125.638 22.9366 125.24 23.0288C124.848 23.121 124.381 23.1816 123.839 23.2104C122.744 23.268 121.825 23.1556 121.081 22.8732C120.338 22.585 119.779 22.1326 119.404 21.5159C119.03 20.8991 118.848 20.1268 118.86 19.1988V6.55908Z" fill="#F7F7F7"/>
<path d="M110.603 23.2623C109.162 23.2623 107.928 22.977 106.902 22.4064C105.876 21.83 105.09 21.0288 104.542 20.0029C103.994 18.9712 103.721 17.7752 103.721 16.415C103.721 15.0548 103.994 13.8617 104.542 12.8358C105.09 11.8041 105.876 11.0029 106.902 10.4323C107.928 9.85593 109.162 9.56775 110.603 9.56775C111.905 9.56775 113.032 9.80406 113.983 10.2767C114.94 10.7435 115.68 11.4064 116.205 12.2652C116.729 13.1182 116.994 14.1211 117 15.2738H112.574C112.51 14.5764 112.309 14.0461 111.969 13.683C111.634 13.3141 111.202 13.1297 110.672 13.1297C110.257 13.1297 109.894 13.2507 109.582 13.4928C109.271 13.7291 109.029 14.0894 108.856 14.5735C108.683 15.0519 108.597 15.6542 108.597 16.3804C108.597 17.1067 108.683 17.7118 108.856 18.196C109.029 18.6744 109.271 19.0346 109.582 19.2767C109.894 19.513 110.257 19.6311 110.672 19.6311C111.023 19.6311 111.335 19.5505 111.605 19.3891C111.876 19.2219 112.095 18.9799 112.262 18.6628C112.435 18.3401 112.539 17.9482 112.574 17.4871H117C116.983 18.6571 116.715 19.6773 116.196 20.5476C115.677 21.4121 114.943 22.0807 113.992 22.5533C113.046 23.026 111.917 23.2623 110.603 23.2623Z" fill="#F7F7F7"/>
<path d="M96.7291 23.2623C95.3112 23.2623 94.0893 22.9914 93.0634 22.4496C92.0432 21.902 91.2565 21.1182 90.7032 20.098C90.1556 19.0721 89.8818 17.8444 89.8818 16.415C89.8818 15.0433 90.1585 13.8444 90.7118 12.8185C91.2651 11.7925 92.0461 10.9943 93.0547 10.4237C94.0634 9.85305 95.2536 9.56775 96.6254 9.56775C97.6282 9.56775 98.536 9.72337 99.3487 10.0346C100.161 10.3458 100.856 10.7983 101.432 11.392C102.009 11.9799 102.452 12.6945 102.764 13.536C103.075 14.3775 103.231 15.3257 103.231 16.3804V17.4871H91.3689V14.8588H98.8386C98.8328 14.4784 98.7349 14.1441 98.5447 13.8559C98.3602 13.562 98.1095 13.3343 97.7925 13.1729C97.4813 13.0058 97.1268 12.9222 96.7291 12.9222C96.3429 12.9222 95.9885 13.0058 95.6657 13.1729C95.3429 13.3343 95.0836 13.5591 94.8876 13.8473C94.6974 14.1355 94.5965 14.4726 94.585 14.8588V17.6946C94.585 18.1211 94.6743 18.5015 94.853 18.8358C95.0317 19.1701 95.2882 19.4323 95.6225 19.6225C95.9568 19.8127 96.3602 19.9078 96.8328 19.9078C97.1614 19.9078 97.4611 19.8617 97.732 19.7695C98.0086 19.6773 98.2449 19.5447 98.4409 19.3718C98.6369 19.1931 98.781 18.9799 98.8732 18.732H103.231C103.081 19.6542 102.726 20.4554 102.167 21.1355C101.608 21.8098 100.867 22.3343 99.9452 22.709C99.0288 23.0778 97.9568 23.2623 96.7291 23.2623Z" fill="#F7F7F7"/>
<path d="M84.136 9.74063H88.9084V23.4697C88.9084 24.634 88.6634 25.5447 88.1735 26.2017C87.6894 26.8588 87.0092 27.3228 86.1332 27.5937C85.2571 27.8646 84.234 28 83.064 28C82.8911 28 82.7326 27.9971 82.5885 27.9914C82.4386 27.9856 82.2744 27.9769 82.0957 27.9654V24.438C82.211 24.4496 82.3118 24.4582 82.3983 24.464C82.479 24.4697 82.5626 24.4726 82.649 24.4726C83.2196 24.4726 83.6087 24.3833 83.8162 24.2046C84.0294 24.0317 84.136 23.7522 84.136 23.366V9.74063ZM86.5222 8.35735C85.8767 8.35735 85.3234 8.14409 84.8623 7.71758C84.4012 7.29107 84.1706 6.7781 84.1706 6.17867C84.1706 5.57925 84.4012 5.06628 84.8623 4.63977C85.3234 4.21326 85.8767 4 86.5222 4C87.1735 4 87.7268 4.21326 88.1822 4.63977C88.6433 5.06628 88.8738 5.57925 88.8738 6.17867C88.8738 6.7781 88.6433 7.29107 88.1822 7.71758C87.7268 8.14409 87.1735 8.35735 86.5222 8.35735Z" fill="#F7F7F7"/>
<path d="M76.292 23.2623C74.8511 23.2623 73.6176 22.977 72.5917 22.4064C71.5658 21.83 70.779 21.0288 70.2315 20.0029C69.6839 18.9712 69.4102 17.7752 69.4102 16.415C69.4102 15.0548 69.6839 13.8617 70.2315 12.8358C70.779 11.8041 71.5658 11.0029 72.5917 10.4323C73.6176 9.85593 74.8511 9.56775 76.292 9.56775C77.7329 9.56775 78.9663 9.85593 79.9923 10.4323C81.0182 11.0029 81.805 11.8041 82.3525 12.8358C82.9001 13.8617 83.1738 15.0548 83.1738 16.415C83.1738 17.7752 82.9001 18.9712 82.3525 20.0029C81.805 21.0288 81.0182 21.83 79.9923 22.4064C78.9663 22.977 77.7329 23.2623 76.292 23.2623ZM76.3266 19.7349C76.73 19.7349 77.0787 19.5994 77.3727 19.3286C77.6666 19.0577 77.8943 18.6715 78.0557 18.1701C78.2171 17.6686 78.2978 17.0721 78.2978 16.3804C78.2978 15.683 78.2171 15.0865 78.0557 14.5908C77.8943 14.0894 77.6666 13.7032 77.3727 13.4323C77.0787 13.1614 76.73 13.026 76.3266 13.026C75.9001 13.026 75.5341 13.1614 75.2286 13.4323C74.9231 13.7032 74.6897 14.0894 74.5283 14.5908C74.3669 15.0865 74.2862 15.683 74.2862 16.3804C74.2862 17.0721 74.3669 17.6686 74.5283 18.1701C74.6897 18.6715 74.9231 19.0577 75.2286 19.3286C75.5341 19.5994 75.9001 19.7349 76.3266 19.7349Z" fill="#F7F7F7"/>
<path d="M61.0723 23.0202V9.74066H65.7063V12.2652H65.8446C66.0867 11.3314 66.47 10.6484 66.9945 10.2162C67.5247 9.78389 68.1443 9.56775 68.8532 9.56775C69.0607 9.56775 69.2654 9.58504 69.4671 9.61962C69.6746 9.64844 69.8734 9.69167 70.0636 9.7493V13.8214C69.8273 13.7407 69.5362 13.6801 69.1904 13.6398C68.8446 13.5994 68.5478 13.5793 68.2999 13.5793C67.8331 13.5793 67.4123 13.6859 67.0377 13.8992C66.6688 14.1067 66.3777 14.4006 66.1645 14.781C65.9512 15.1556 65.8446 15.5966 65.8446 16.1038V23.0202H61.0723Z" fill="#F7F7F7"/>
<path d="M46 23.0201V5.31409H53.6427C54.9568 5.31409 56.1066 5.57345 57.0922 6.09219C58.0778 6.61092 58.8444 7.34002 59.3919 8.27951C59.9395 9.21899 60.2133 10.317 60.2133 11.5735C60.2133 12.8415 59.9308 13.9394 59.366 14.8674C58.8069 15.7954 58.0202 16.5101 57.0058 17.0115C55.9971 17.5129 54.8184 17.7637 53.4697 17.7637H48.9049V14.0288H52.5014C53.0663 14.0288 53.5475 13.9308 53.9452 13.7348C54.3487 13.5331 54.6571 13.2478 54.8703 12.8789C55.0893 12.5101 55.1988 12.0749 55.1988 11.5735C55.1988 11.0662 55.0893 10.634 54.8703 10.2766C54.6571 9.91351 54.3487 9.63685 53.9452 9.44665C53.5475 9.25069 53.0663 9.1527 52.5014 9.1527H50.8069V23.0201H46Z" fill="#F7F7F7"/>
<defs>
<clipPath id="clip0_2133_431">
<rect width="38" height="24" fill="white" transform="translate(0 2)"/>
</clipPath>
</defs>
</svg>
