<svg width="60" height="48" viewBox="0 0 60 48" fill="none" xmlns="http://www.w3.org/2000/svg">
<path d="M20.9099 45.3156C20.0505 42.6665 25.5888 37.6644 28.3743 34.7216C32.172 30.7093 35.6543 28.2461 40.2274 24.9887C43.6784 22.5305 48.0227 18.0359 50.243 13.9245C51.4136 11.7568 53.167 7.04914 49.1814 5.51798C45.1957 3.98683 29.2627 8.42851 18.2755 11.9921C8.9953 15.002 9.95797 15.2204 2 15.2209" stroke="#F7F7F7" stroke-width="2.9964" stroke-linecap="round"/>
<path d="M9.19637 24.1123C9.06504 25.1628 3.91416 26.5443 2.9375 27.0325" stroke="#F7F7F7" stroke-width="2.9964" stroke-linecap="round"/>
<path d="M14.0811 33.4718C12.6644 34.8881 10.116 37.0207 9.49121 38.8945" stroke="#F7F7F7" stroke-width="2.9964" stroke-linecap="round"/>
<path d="M8.60022 8.63771C7.27016 7.85797 6.30349 6.59933 5.16419 5.74947C4.6404 5.35875 2.26371 4.18029 2.28179 4.24964" stroke="#F7F7F7" stroke-width="2.9964" stroke-linecap="round"/>
</svg>
